<svg width="144" height="38" viewBox="0 0 144 38" fill="none" xmlns="http://www.w3.org/2000/svg">
<path d="M27.3616 10.7519L15.3492 19.0481C15.0155 19.3799 14.6818 19.0481 14.3481 18.7162L12.3461 16.0615L25.0258 7.43338L21.3554 1.79202C20.0207 -0.19907 17.6849 -0.530979 15.6828 0.796415L7.00722 6.76975C5.00516 8.09714 4.6715 10.42 6.00621 12.4111L7.67459 15.066L0 20.3755L2.00206 23.0303L9.67665 17.7207L11.6787 20.7073C13.0134 22.6984 15.3492 23.0303 17.3512 21.7029L29.3636 13.4067L27.3616 10.7519ZM9.00928 9.4245L17.6849 3.45126C18.0186 3.11942 18.3523 3.45118 18.6859 3.78303L20.688 6.43788L11.0114 13.0748L9.00928 10.42C8.67561 10.0882 8.67561 9.75634 9.00928 9.4245Z" fill="#9E0CAB"/>
<path d="M49.6641 16.0251V18.3428H40.0624C38.407 18.3428 37.4137 17.0184 37.4137 15.694V9.07214C37.4137 7.41667 38.7381 6.42343 40.0624 6.42343H49.6641V8.74102H40.0624C39.7313 8.74102 39.7313 9.07214 39.7313 9.07214V15.694C39.7313 16.0251 40.0624 16.0251 40.0624 16.0251H49.6641Z" fill="#9E0CAB"/>
<path d="M61.5832 6.09213C63.2386 6.09213 64.2319 7.41646 64.2319 8.74084V15.3627C64.2319 17.0182 62.9075 18.0115 61.5832 18.0115H54.6302C52.9747 18.0115 51.9814 16.6871 51.9814 15.3627V8.74084C51.9814 7.08537 53.3058 6.09213 54.6302 6.09213H61.5832ZM54.6302 8.40982C54.2991 8.40982 54.2991 8.74084 54.2991 8.74084V15.3627C54.2991 15.6938 54.6302 15.6938 54.6302 15.6938H61.5832C61.9142 15.6938 61.9142 15.3627 61.9142 15.3627V8.74084C61.9142 8.40974 61.5832 8.40982 61.5832 8.40982H54.6302Z" fill="#9E0CAB"/>
<path d="M78.4692 8.7409V18.0116H76.1515V8.7409C76.1515 8.4098 75.8205 8.40988 75.8205 8.40988H68.8675C68.5364 8.40988 68.5364 8.7409 68.5364 8.7409V18.0116H66.2188V5.76108H75.8205C77.1448 6.09217 78.4692 7.08543 78.4692 8.7409Z" fill="#9E0CAB"/>
<path d="M82.7735 8.40993V15.6939C82.7735 16.025 83.1045 16.025 83.1045 16.025H87.7398V18.3427H83.1045C81.4491 18.3427 80.4558 17.0183 80.4558 15.6939V9.07206V2.4502H82.7735V6.42335H87.7398V8.74094H82.7735V8.40993Z" fill="#9E0CAB"/>
<path d="M98.6659 6.09213V8.40982H92.044C91.7129 8.40982 91.7129 8.74084 91.7129 8.74084V18.0115H89.3953V15.3627V8.74084C89.3953 7.08537 90.7196 6.09213 92.044 6.09213H98.6659Z" fill="#9E0CAB"/>
<path d="M109.592 6.09213C111.247 6.09213 112.24 7.41646 112.24 8.74084V15.3627C112.24 17.0182 110.916 18.0115 109.592 18.0115H102.639C100.983 18.0115 99.99 16.6871 99.99 15.3627V8.74084C99.99 7.08537 101.314 6.09213 102.639 6.09213H109.592ZM102.639 8.40982C102.308 8.40982 102.308 8.74084 102.308 8.74084V15.3627C102.308 15.6938 102.639 15.6938 102.639 15.6938H109.592C109.923 15.6938 109.923 15.3627 109.923 15.3627V8.74084C109.923 8.40974 109.592 8.40982 109.592 8.40982H102.639Z" fill="#9E0CAB"/>
<path d="M113.896 2.11917H116.214V15.3629C116.214 15.694 116.545 15.694 116.545 15.694H118.863V18.0117H116.545C114.89 18.0117 113.896 16.6873 113.896 15.3629V8.74103V2.11917Z" fill="#9E0CAB"/>
<path d="M128.796 13.0453H120.518V10.7276H128.796V13.0453Z" fill="#9E0CAB"/>
<path d="M143.364 8.74108V13.3765H133.431V15.6941C133.431 16.0251 133.762 16.0252 133.762 16.0252H143.364V18.3429H133.762C132.107 18.3429 131.113 17.0184 131.113 15.6941V9.07219C131.113 7.41673 132.438 6.42349 133.762 6.42349H140.715C142.039 6.09239 143.364 7.08561 143.364 8.74108ZM141.046 11.0588V8.74108C141.046 8.40999 140.715 8.41007 140.715 8.41007H133.762C133.431 8.41007 133.431 8.74108 133.431 8.74108V11.0588H141.046Z" fill="#9E0CAB"/>
<path d="M107.438 32.4663C106.738 32.4663 106.118 32.3123 105.576 32.0043C105.035 31.6869 104.606 31.2529 104.288 30.7023C103.98 30.1423 103.826 29.5076 103.826 28.7983C103.826 28.0796 103.971 27.4496 104.26 26.9083C104.55 26.3576 104.946 25.9283 105.45 25.6203C105.964 25.3029 106.538 25.1443 107.172 25.1443C107.807 25.1443 108.376 25.2983 108.88 25.6063C109.394 25.9049 109.795 26.3249 110.084 26.8663C110.383 27.4076 110.532 28.0283 110.532 28.7283C110.532 28.7376 110.532 28.7469 110.532 28.7563C110.532 28.7656 110.532 28.7796 110.532 28.7983H103.98V28.5323H110.378L110.266 28.7423C110.266 28.1076 110.131 27.5383 109.86 27.0343C109.59 26.5303 109.221 26.1336 108.754 25.8443C108.297 25.5549 107.77 25.4103 107.172 25.4103C106.584 25.4103 106.057 25.5549 105.59 25.8443C105.124 26.1336 104.755 26.5303 104.484 27.0343C104.223 27.5383 104.092 28.1076 104.092 28.7423V28.7983C104.092 29.4609 104.237 30.0489 104.526 30.5623C104.816 31.0756 105.212 31.4769 105.716 31.7663C106.22 32.0556 106.794 32.2003 107.438 32.2003C107.924 32.2003 108.381 32.1069 108.81 31.9203C109.249 31.7336 109.613 31.4536 109.902 31.0803L110.098 31.2763C109.781 31.6683 109.389 31.9669 108.922 32.1723C108.456 32.3683 107.961 32.4663 107.438 32.4663ZM114.567 32.4243L111.235 25.1863H111.557L114.763 32.2283H114.651L117.857 25.1863H118.179L114.847 32.4243H114.567ZM122.423 32.4663C121.723 32.4663 121.102 32.3123 120.561 32.0043C120.019 31.6869 119.59 31.2529 119.273 30.7023C118.965 30.1423 118.811 29.5076 118.811 28.7983C118.811 28.0796 118.955 27.4496 119.245 26.9083C119.534 26.3576 119.931 25.9283 120.435 25.6203C120.948 25.3029 121.522 25.1443 122.157 25.1443C122.791 25.1443 123.361 25.2983 123.865 25.6063C124.378 25.9049 124.779 26.3249 125.069 26.8663C125.367 27.4076 125.517 28.0283 125.517 28.7283C125.517 28.7376 125.517 28.7469 125.517 28.7563C125.517 28.7656 125.517 28.7796 125.517 28.7983H118.965V28.5323H125.363L125.251 28.7423C125.251 28.1076 125.115 27.5383 124.845 27.0343C124.574 26.5303 124.205 26.1336 123.739 25.8443C123.281 25.5549 122.754 25.4103 122.157 25.4103C121.569 25.4103 121.041 25.5549 120.575 25.8443C120.108 26.1336 119.739 26.5303 119.469 27.0343C119.207 27.5383 119.077 28.1076 119.077 28.7423V28.7983C119.077 29.4609 119.221 30.0489 119.511 30.5623C119.8 31.0756 120.197 31.4769 120.701 31.7663C121.205 32.0556 121.779 32.2003 122.423 32.2003C122.908 32.2003 123.365 32.1069 123.795 31.9203C124.233 31.7336 124.597 31.4536 124.887 31.0803L125.083 31.2763C124.765 31.6683 124.373 31.9669 123.907 32.1723C123.44 32.3683 122.945 32.4663 122.423 32.4663ZM131.2 25.1443C131.797 25.1443 132.31 25.2609 132.74 25.4943C133.169 25.7183 133.5 26.0543 133.734 26.5023C133.976 26.9503 134.098 27.5009 134.098 28.1543V32.4243H133.818V28.1543C133.818 27.2583 133.589 26.5769 133.132 26.1103C132.674 25.6436 132.035 25.4103 131.214 25.4103C130.579 25.4103 130.033 25.5409 129.576 25.8023C129.118 26.0543 128.768 26.4136 128.526 26.8803C128.283 27.3376 128.162 27.8743 128.162 28.4903V32.4243H127.882V25.1863H128.162V27.2443L128.134 27.2023C128.348 26.5676 128.717 26.0683 129.24 25.7043C129.762 25.3309 130.416 25.1443 131.2 25.1443ZM139.095 32.4663C138.526 32.4663 138.092 32.3029 137.793 31.9763C137.495 31.6496 137.345 31.2203 137.345 30.6883V23.6043H137.625V30.6183C137.625 31.1316 137.751 31.5236 138.003 31.7943C138.255 32.0649 138.624 32.2003 139.109 32.2003C139.595 32.2003 139.996 32.0509 140.313 31.7523L140.509 31.9483C140.341 32.1256 140.127 32.2563 139.865 32.3403C139.613 32.4243 139.357 32.4663 139.095 32.4663ZM135.945 25.4523V25.1863H140.075V25.4523H135.945Z" fill="#9E0CAB"/>
</svg>
