<svg width="249" height="40" viewBox="0 0 249 40" fill="none" xmlns="http://www.w3.org/2000/svg">
<path d="M47.5227 18.6743L26.6591 33.0835C26.0795 33.6599 25.5 33.0835 24.9205 32.5071L21.4432 27.8962L43.4659 12.9106L37.0909 3.11246C34.7727 -0.345753 30.7159 -0.922227 27.2386 1.38325L12.1704 11.758C8.69317 14.0635 8.11365 18.0979 10.4318 21.5561L13.3296 26.1672L0 35.3889L3.47726 40L16.8068 30.7781L20.2841 35.9654C22.6023 39.4236 26.6591 40 30.1363 37.6946L51 23.2854L47.5227 18.6743ZM15.6477 16.3689L30.7159 5.9943C31.2955 5.41793 31.875 5.99416 32.4545 6.57053L35.9318 11.1816L19.125 22.7089L15.6477 18.0979C15.0682 17.5215 15.0682 16.9452 15.6477 16.3689Z" fill="#BCBCBC"/>
<path d="M86.2585 27.8333V31.8588H69.5819C66.7066 31.8588 64.9814 29.5585 64.9814 27.2582V15.7571C64.9814 12.8818 67.2816 11.1567 69.5819 11.1567H86.2585V15.182H69.5819C69.0068 15.182 69.0068 15.7571 69.0068 15.7571V27.2582C69.0068 27.8333 69.5819 27.8333 69.5819 27.8333H86.2585Z" fill="#BCBCBC"/>
<path d="M106.96 10.5811C109.835 10.5811 111.56 12.8812 111.56 15.1814V26.6826C111.56 29.5578 109.26 31.2831 106.96 31.2831H94.8837C92.0084 31.2831 90.2832 28.9828 90.2832 26.6826V15.1814C90.2832 12.3062 92.5834 10.5811 94.8837 10.5811H106.96ZM94.8837 14.6065C94.3086 14.6065 94.3086 15.1814 94.3086 15.1814V26.6826C94.3086 27.2576 94.8837 27.2577 94.8837 27.2577H106.96C107.535 27.2577 107.535 26.6826 107.535 26.6826V15.1814C107.535 14.6064 106.96 14.6065 106.96 14.6065H94.8837Z" fill="#BCBCBC"/>
<path d="M136.288 15.1813V31.283H132.263V15.1813C132.263 14.6063 131.688 14.6064 131.688 14.6064H119.612C119.037 14.6064 119.037 15.1813 119.037 15.1813V31.283H115.011V10.0059H131.688C133.988 10.5809 136.288 12.3061 136.288 15.1813Z" fill="#BCBCBC"/>
<path d="M143.764 14.6065V27.2576C143.764 27.8327 144.339 27.8327 144.339 27.8327H152.39V31.8582H144.339C141.464 31.8582 139.739 29.5579 139.739 27.2576V15.7565V4.25537H143.764V11.1561H152.39V15.1814H143.764V14.6065Z" fill="#BCBCBC"/>
<path d="M171.367 10.5811V14.6065H159.866C159.291 14.6065 159.291 15.1814 159.291 15.1814V31.2831H155.265V26.6826V15.1814C155.265 12.3062 157.565 10.5811 159.866 10.5811H171.367Z" fill="#BCBCBC"/>
<path d="M190.343 10.5811C193.218 10.5811 194.944 12.8812 194.944 15.1814V26.6826C194.944 29.5578 192.643 31.2831 190.343 31.2831H178.267C175.392 31.2831 173.667 28.9828 173.667 26.6826V15.1814C173.667 12.3062 175.967 10.5811 178.267 10.5811H190.343ZM178.267 14.6065C177.692 14.6065 177.692 15.1814 177.692 15.1814V26.6826C177.692 27.2576 178.267 27.2577 178.267 27.2577H190.343C190.918 27.2577 190.918 26.6826 190.918 26.6826V15.1814C190.918 14.6064 190.343 14.6065 190.343 14.6065H178.267Z" fill="#BCBCBC"/>
<path d="M197.82 3.68066H201.845V26.6829C201.845 27.258 202.42 27.258 202.42 27.258H206.446V31.2835H202.42C199.545 31.2835 197.82 28.9831 197.82 26.6829V15.1818V3.68066Z" fill="#BCBCBC"/>
<path d="M223.697 22.6573H209.321V18.6318H223.697V22.6573Z" fill="#BCBCBC"/>
<path d="M249 15.1819V23.2328H231.748V27.2581C231.748 27.8331 232.323 27.8332 232.323 27.8332H249V31.8586H232.323C229.448 31.8586 227.723 29.5583 227.723 27.2581V15.757C227.723 12.8817 230.023 11.1566 232.323 11.1566H244.399C246.7 10.5815 249 12.3066 249 15.1819ZM244.974 19.2073V15.1819C244.974 14.6068 244.399 14.6069 244.399 14.6069H232.323C231.748 14.6069 231.748 15.1819 231.748 15.1819V19.2073H244.974Z" fill="#BCBCBC"/>
</svg>
